# xmcd CD database file
#
# Track frame offsets:
#	150
#	30009
#	53753
#	69543
#	95413
#	108838
#	126847
#	151218
#	159661
#
# Disc length: 2465 seconds
#
# Revision: 32
# Processed by: cddbd v1.5.1PL2 Copyright (c) Steve Scherf et al.
# Submitted via: CDex 1.51
#
DISCID=64099f09
DTITLE=Megadeth - Rust In Peace
DYEAR=1990
DGENRE=Heavy Metal
TTITLE0=Holy Wars... The Punishment Due
TTITLE1=Hangar 18
TTITLE2=Take No Prisoners
TTITLE3=Five Magics
TTITLE4=Poison Was The Cure
TTITLE5=Lucretia
TTITLE6=Tornado of Souls
TTITLE7=Dawn Patrol
TTITLE8=Rust In Peace... Polaris
EXTD=Produced by: Mike Clink and Dave Mustaine [Capitol] YEAR: 1990
EXTT0=Dave Mustaine
EXTT1=Dave Mustaine
EXTT2=Dave Mustaine
EXTT3=Dave Mustaine
EXTT4=Dave Mustaine
EXTT5=Mustaine - Ellefson
EXTT6=Mustaine - Ellefson
EXTT7=Mustaine - Ellefson
EXTT8=Dave Mustaine
PLAYORDER=
